<svg width="85" height="11" viewBox="0 0 85 11" fill="none" xmlns="http://www.w3.org/2000/svg">
<path d="M10.3778 3.8892C10.3494 3.5767 10.223 3.33381 9.99858 3.16051C9.77699 2.98438 9.46023 2.89631 9.0483 2.89631C8.77557 2.89631 8.5483 2.93182 8.36648 3.00284C8.18466 3.07386 8.0483 3.17188 7.95739 3.29688C7.86648 3.41903 7.8196 3.55966 7.81676 3.71875C7.81108 3.84943 7.83665 3.96449 7.89347 4.06392C7.95313 4.16335 8.03835 4.25142 8.14915 4.32812C8.26278 4.40199 8.39915 4.46733 8.55824 4.52415C8.71733 4.58097 8.89631 4.63068 9.09517 4.6733L9.84517 4.84375C10.277 4.9375 10.6577 5.0625 10.9872 5.21875C11.3196 5.375 11.598 5.56108 11.8224 5.77699C12.0497 5.9929 12.2216 6.24148 12.3381 6.52273C12.4545 6.80398 12.5142 7.11932 12.517 7.46875C12.5142 8.01989 12.375 8.4929 12.0994 8.88778C11.8239 9.28267 11.4276 9.58523 10.9105 9.79545C10.3963 10.0057 9.77557 10.1108 9.0483 10.1108C8.31818 10.1108 7.68182 10.0014 7.1392 9.78267C6.59659 9.56392 6.17472 9.23153 5.87358 8.78551C5.57244 8.33949 5.41761 7.77557 5.40909 7.09375H7.42898C7.44602 7.375 7.52131 7.60938 7.65483 7.79688C7.78835 7.98438 7.97159 8.12642 8.20455 8.22301C8.44034 8.3196 8.71307 8.3679 9.02273 8.3679C9.30682 8.3679 9.5483 8.32955 9.74716 8.25284C9.94886 8.17614 10.1037 8.0696 10.2116 7.93324C10.3196 7.79687 10.375 7.64062 10.3778 7.46449C10.375 7.29972 10.3239 7.15909 10.2244 7.04261C10.125 6.9233 9.97159 6.82102 9.7642 6.7358C9.55966 6.64773 9.2983 6.56676 8.98011 6.4929L8.06818 6.27983C7.3125 6.10653 6.71733 5.8267 6.28267 5.44034C5.84801 5.05114 5.6321 4.52557 5.63494 3.86364C5.6321 3.32386 5.77699 2.85085 6.0696 2.4446C6.36222 2.03835 6.76705 1.72159 7.28409 1.49432C7.80114 1.26705 8.39063 1.15341 9.05256 1.15341C9.72869 1.15341 10.3153 1.26847 10.8125 1.49858C11.3125 1.72585 11.7003 2.04545 11.9759 2.45739C12.2514 2.86932 12.392 3.34659 12.3977 3.8892H10.3778ZM16.6378 10.1236C15.9503 10.1236 15.3594 9.98295 14.8651 9.7017C14.3736 9.41761 13.9943 9.02273 13.7273 8.51705C13.4631 8.00852 13.331 7.41903 13.331 6.74858C13.331 6.07528 13.4631 5.4858 13.7273 4.98011C13.9943 4.47159 14.3736 4.0767 14.8651 3.79545C15.3594 3.51136 15.9503 3.36932 16.6378 3.36932C17.3253 3.36932 17.9148 3.51136 18.4062 3.79545C18.9006 4.0767 19.2798 4.47159 19.544 4.98011C19.8111 5.4858 19.9446 6.07528 19.9446 6.74858C19.9446 7.41903 19.8111 8.00852 19.544 8.51705C19.2798 9.02273 18.9006 9.41761 18.4062 9.7017C17.9148 9.98295 17.3253 10.1236 16.6378 10.1236ZM16.6506 8.55114C16.9006 8.55114 17.1122 8.47443 17.2855 8.32102C17.4588 8.16761 17.5909 7.95455 17.6818 7.68182C17.7756 7.40909 17.8224 7.09375 17.8224 6.7358C17.8224 6.37216 17.7756 6.05398 17.6818 5.78125C17.5909 5.50852 17.4588 5.29545 17.2855 5.14205C17.1122 4.98864 16.9006 4.91193 16.6506 4.91193C16.392 4.91193 16.1733 4.98864 15.9943 5.14205C15.8182 5.29545 15.6832 5.50852 15.5895 5.78125C15.4986 6.05398 15.4531 6.37216 15.4531 6.7358C15.4531 7.09375 15.4986 7.40909 15.5895 7.68182C15.6832 7.95455 15.8182 8.16761 15.9943 8.32102C16.1733 8.47443 16.392 8.55114 16.6506 8.55114ZM25.2351 7.17472V3.45455H27.3146V10H25.3288V8.78125H25.2607C25.1158 9.18182 24.8686 9.5 24.5192 9.7358C24.1726 9.96875 23.7536 10.0852 23.2621 10.0852C22.8161 10.0852 22.424 9.98295 22.0859 9.77841C21.7479 9.57386 21.4851 9.28835 21.2976 8.92188C21.1101 8.55256 21.0149 8.12074 21.0121 7.62642V3.45455H23.0959V7.21733C23.0987 7.57244 23.1925 7.85227 23.3771 8.05682C23.5618 8.26136 23.8132 8.36364 24.1314 8.36364C24.3388 8.36364 24.5249 8.31818 24.6896 8.22727C24.8572 8.13352 24.9893 7.99858 25.0859 7.82244C25.1854 7.64347 25.2351 7.42756 25.2351 7.17472ZM32.3356 3.45455V4.98864H28.2063V3.45455H32.3356ZM29.0714 1.88636H31.1552V7.94176C31.1552 8.0696 31.1751 8.1733 31.2148 8.25284C31.2575 8.32955 31.3185 8.38494 31.3981 8.41903C31.4776 8.45028 31.5728 8.46591 31.6836 8.46591C31.7631 8.46591 31.8469 8.45881 31.935 8.4446C32.0259 8.42756 32.0941 8.41335 32.1396 8.40199L32.4549 9.90625C32.3555 9.93466 32.2148 9.97017 32.033 10.0128C31.854 10.0554 31.6396 10.0824 31.3896 10.0938C30.9009 10.1165 30.4819 10.0597 30.1325 9.9233C29.7859 9.78409 29.5202 9.56818 29.3356 9.27557C29.1538 8.98295 29.0657 8.61506 29.0714 8.17188V1.88636ZM35.6232 6.26705V10H33.5394V1.27273H35.555V4.65625H35.6275C35.7752 4.25284 36.0167 3.9375 36.3519 3.71023C36.69 3.48295 37.1033 3.36932 37.592 3.36932C38.0522 3.36932 38.4528 3.47159 38.7937 3.67614C39.1346 3.87784 39.3988 4.16335 39.5863 4.53267C39.7766 4.90199 39.8704 5.33381 39.8675 5.82812V10H37.7837V6.23722C37.7866 5.87358 37.6957 5.58949 37.511 5.38494C37.3263 5.1804 37.0664 5.07812 36.7312 5.07812C36.5124 5.07812 36.3192 5.12642 36.1516 5.22301C35.9869 5.31676 35.8576 5.4517 35.7638 5.62784C35.6729 5.80398 35.6261 6.01705 35.6232 6.26705ZM44.228 10.1236C43.5433 10.1236 42.9524 9.98864 42.4553 9.71875C41.9609 9.44602 41.5803 9.05824 41.3132 8.5554C41.049 8.04972 40.9169 7.44886 40.9169 6.75284C40.9169 6.0767 41.0504 5.4858 41.3175 4.98011C41.5845 4.47159 41.9609 4.0767 42.4467 3.79545C42.9325 3.51136 43.505 3.36932 44.1641 3.36932C44.63 3.36932 45.0561 3.44176 45.4425 3.58665C45.8288 3.73153 46.1626 3.94602 46.4439 4.23011C46.7251 4.5142 46.9439 4.86506 47.1001 5.28267C47.2564 5.69744 47.3345 6.1733 47.3345 6.71023V7.23011H41.6456V6.01989H45.3956C45.3928 5.7983 45.3402 5.60085 45.2379 5.42756C45.1357 5.25426 44.995 5.11932 44.8161 5.02273C44.6399 4.9233 44.4368 4.87358 44.2067 4.87358C43.9737 4.87358 43.7649 4.92614 43.5803 5.03125C43.3956 5.13352 43.2493 5.27415 43.1413 5.45312C43.0334 5.62926 42.9766 5.82955 42.9709 6.05398V7.28551C42.9709 7.55256 43.0234 7.78693 43.1286 7.98864C43.2337 8.1875 43.3828 8.34233 43.576 8.45312C43.7692 8.56392 43.9993 8.61932 44.2663 8.61932C44.451 8.61932 44.6186 8.59375 44.7692 8.54261C44.9197 8.49148 45.049 8.41619 45.157 8.31676C45.2649 8.21733 45.3459 8.09517 45.3999 7.95028L47.3132 8.00568C47.2337 8.43466 47.0589 8.80824 46.7891 9.12642C46.522 9.44176 46.1712 9.6875 45.7365 9.86364C45.3018 10.0369 44.799 10.1236 44.228 10.1236ZM48.3988 10V3.45455H50.4229V4.64773H50.4911C50.6104 4.21591 50.805 3.89489 51.0749 3.68466C51.3448 3.47159 51.6587 3.36506 52.0167 3.36506C52.1133 3.36506 52.2127 3.37216 52.315 3.38636C52.4173 3.39773 52.5124 3.41619 52.6005 3.44176V5.25284C52.5011 5.21875 52.3704 5.19176 52.2085 5.17188C52.0494 5.15199 51.9073 5.14205 51.7823 5.14205C51.5352 5.14205 51.3121 5.19744 51.1133 5.30824C50.9173 5.41619 50.7624 5.56818 50.6488 5.7642C50.538 5.95739 50.4826 6.18466 50.4826 6.44602V10H48.3988ZM55.5334 6.26705V10H53.4496V3.45455H55.4311V4.65625H55.5036C55.6484 4.25568 55.8956 3.94176 56.245 3.71449C56.5945 3.48438 57.0107 3.36932 57.4936 3.36932C57.9538 3.36932 58.353 3.47301 58.6911 3.6804C59.032 3.88494 59.2962 4.17187 59.4837 4.54119C59.674 4.90767 59.7678 5.33665 59.7649 5.82812V10H57.6811V6.23722C57.6839 5.87358 57.5916 5.58949 57.4041 5.38494C57.2195 5.1804 56.9624 5.07812 56.6328 5.07812C56.4141 5.07812 56.2209 5.12642 56.0533 5.22301C55.8885 5.31676 55.7607 5.4517 55.6697 5.62784C55.5817 5.80398 55.5362 6.01705 55.5334 6.26705ZM63.6332 10V1.27273H67.2724C67.9258 1.27273 68.4727 1.36506 68.913 1.54972C69.3562 1.73437 69.6886 1.9929 69.9102 2.32528C70.1346 2.65767 70.2468 3.04261 70.2468 3.48011C70.2468 3.8125 70.1772 4.10938 70.038 4.37074C69.8988 4.62926 69.707 4.84375 69.4627 5.0142C69.2184 5.18466 68.9357 5.30398 68.6147 5.37216V5.45739C68.967 5.47443 69.2923 5.5696 69.5906 5.7429C69.8917 5.91619 70.1332 6.15767 70.315 6.46733C70.4968 6.77415 70.5877 7.13778 70.5877 7.55824C70.5877 8.02699 70.4684 8.44602 70.2298 8.81534C69.9911 9.18182 69.646 9.47159 69.1942 9.68466C68.7425 9.89489 68.1942 10 67.5494 10H63.6332ZM65.7425 8.29972H67.0465C67.5039 8.29972 67.8406 8.21307 68.0565 8.03977C68.2752 7.86648 68.3846 7.625 68.3846 7.31534C68.3846 7.09091 68.332 6.89773 68.2269 6.7358C68.1218 6.57102 67.9727 6.4446 67.7795 6.35653C67.5863 6.26562 67.3548 6.22017 67.0849 6.22017H65.7425V8.29972ZM65.7425 4.8608H66.9102C67.1403 4.8608 67.3448 4.82244 67.5238 4.74574C67.7028 4.66903 67.842 4.55824 67.9414 4.41335C68.0437 4.26847 68.0948 4.09375 68.0948 3.8892C68.0948 3.59659 67.9911 3.36648 67.7837 3.19886C67.5763 3.03125 67.2965 2.94744 66.9442 2.94744H65.7425V4.8608ZM74.6616 10.1236C73.9769 10.1236 73.386 9.98864 72.8888 9.71875C72.3945 9.44602 72.0138 9.05824 71.7468 8.5554C71.4826 8.04972 71.3505 7.44886 71.3505 6.75284C71.3505 6.0767 71.484 5.4858 71.7511 4.98011C72.0181 4.47159 72.3945 4.0767 72.8803 3.79545C73.3661 3.51136 73.9386 3.36932 74.5977 3.36932C75.0636 3.36932 75.4897 3.44176 75.8761 3.58665C76.2624 3.73153 76.5962 3.94602 76.8775 4.23011C77.1587 4.5142 77.3775 4.86506 77.5337 5.28267C77.69 5.69744 77.7681 6.1733 77.7681 6.71023V7.23011H72.0792V6.01989H75.8292C75.8263 5.7983 75.7738 5.60085 75.6715 5.42756C75.5692 5.25426 75.4286 5.11932 75.2496 5.02273C75.0735 4.9233 74.8704 4.87358 74.6403 4.87358C74.4073 4.87358 74.1985 4.92614 74.0138 5.03125C73.8292 5.13352 73.6829 5.27415 73.5749 5.45312C73.467 5.62926 73.4102 5.82955 73.4045 6.05398V7.28551C73.4045 7.55256 73.457 7.78693 73.5621 7.98864C73.6673 8.1875 73.8164 8.34233 74.0096 8.45312C74.2028 8.56392 74.4329 8.61932 74.6999 8.61932C74.8846 8.61932 75.0522 8.59375 75.2028 8.54261C75.3533 8.49148 75.4826 8.41619 75.5906 8.31676C75.6985 8.21733 75.7795 8.09517 75.8335 7.95028L77.7468 8.00568C77.6673 8.43466 77.4925 8.80824 77.2227 9.12642C76.9556 9.44176 76.6048 9.6875 76.1701 9.86364C75.7354 10.0369 75.2326 10.1236 74.6616 10.1236ZM80.9162 1.27273V10H78.8324V1.27273H80.9162ZM84.3263 1.27273V10H82.2425V1.27273H84.3263Z" fill="white"/>
<path d="M1.66193 9.875H1.09091L1.09091 7.41619H1.66193L1.66193 8.2983H4V8.99148H1.66193V9.875ZM2.75568 6.3782H4V7.0728H1.09091V6.40092H2.21875V6.37678C2.08428 6.32753 1.97917 6.24704 1.90341 6.1353C1.82765 6.02261 1.78977 5.88482 1.78977 5.72195C1.78977 5.56854 1.82386 5.43501 1.89205 5.32138C1.95928 5.20774 2.05445 5.11967 2.17756 5.05717C2.30066 4.99373 2.4446 4.96248 2.60938 4.96342H4V5.65803H2.74574C2.62453 5.65708 2.52983 5.68738 2.46165 5.74893C2.39347 5.81049 2.35938 5.89714 2.35938 6.00888C2.35938 6.08179 2.37547 6.14619 2.40767 6.20206C2.43892 6.25698 2.4839 6.30007 2.54261 6.33132C2.60133 6.36162 2.67235 6.37725 2.75568 6.3782ZM4.04119 3.50994C4.04119 3.73816 3.99621 3.93513 3.90625 4.10085C3.81534 4.26562 3.68608 4.39252 3.51847 4.48153C3.34991 4.5696 3.14962 4.61364 2.91761 4.61364C2.69223 4.61364 2.49527 4.56913 2.3267 4.48011C2.1572 4.3911 2.02557 4.26562 1.93182 4.10369C1.83712 3.94176 1.78977 3.75095 1.78977 3.53125C1.78977 3.37595 1.81392 3.2339 1.86222 3.10511C1.91051 2.97633 1.98201 2.86506 2.0767 2.77131C2.1714 2.67756 2.28835 2.60464 2.42756 2.55256C2.56581 2.50047 2.72443 2.47443 2.90341 2.47443H3.0767V4.37074H2.6733V3.12074C2.59943 3.12169 2.53362 3.1392 2.47585 3.1733C2.41809 3.20739 2.37311 3.25426 2.34091 3.31392C2.30777 3.37263 2.29119 3.44034 2.29119 3.51705C2.29119 3.5947 2.30871 3.6643 2.34375 3.72585C2.37784 3.78741 2.42472 3.83617 2.48438 3.87216C2.54309 3.90814 2.60985 3.92708 2.68466 3.92898H3.09517C3.18419 3.92898 3.26231 3.91146 3.32955 3.87642C3.39583 3.84138 3.44744 3.79167 3.48438 3.72727C3.52131 3.66288 3.53977 3.58617 3.53977 3.49716C3.53977 3.43561 3.53125 3.37973 3.5142 3.32955C3.49716 3.27936 3.47206 3.23627 3.43892 3.20028C3.40578 3.1643 3.36506 3.13731 3.31676 3.11932L3.33523 2.48153C3.47822 2.50805 3.60275 2.56629 3.70881 2.65625C3.81392 2.74527 3.89583 2.86222 3.95455 3.0071C4.01231 3.15199 4.04119 3.3196 4.04119 3.50994Z" fill="white"/>
</svg>
